<?xml version="1.0" standalone="no"?>
<!DOCTYPE svg PUBLIC "-//W3C//DTD SVG 20010904//EN"
 "http://www.w3.org/TR/2001/REC-SVG-20010904/DTD/svg10.dtd">
<svg version="1.0" xmlns="http://www.w3.org/2000/svg"
 width="500.000000pt" height="500.000000pt" viewBox="0 0 500.000000 500.000000"
 preserveAspectRatio="xMidYMid meet">
<metadata>
Created by potrace 1.16, written by Peter Selinger 2001-2019
</metadata>
<g transform="translate(0.000000,500.000000) scale(0.100000,-0.100000)"
fill="#000000" stroke="none">
<path d="M2192 4575 c-439 -69 -827 -260 -1144 -564 -552 -528 -771 -1313
-573 -2058 153 -576 558 -1067 1100 -1333 495 -244 1071 -283 1590 -109 526
177 954 547 1207 1045 99 193 160 383 200 614 30 177 30 482 0 660 -154 913
-859 1609 -1769 1745 -127 19 -490 19 -611 0z m462 -178 c16 -11 26 -27 26
-42 0 -39 -36 -33 -61 10 -15 25 -28 35 -45 35 -44 0 -29 -35 29 -69 73 -42
101 -73 93 -105 -15 -59 -121 -79 -202 -40 -32 16 -39 24 -39 49 0 25 4 30 25
30 19 0 29 -9 42 -37 20 -43 53 -57 76 -35 20 21 7 37 -65 78 -63 36 -82 66
-65 104 7 14 22 30 34 35 33 14 122 6 152 -13z m-430 -3 c9 -3 39 -44 67 -90
28 -46 59 -89 70 -94 10 -6 19 -15 19 -20 0 -11 -65 -30 -104 -30 -25 0 -27 3
-22 24 8 32 0 36 -52 29 -32 -4 -42 -10 -42 -24 0 -10 5 -21 11 -25 14 -8 1
-20 -33 -28 -30 -7 -46 8 -29 28 16 19 51 177 45 202 -4 16 -1 24 13 27 28 7
40 7 57 1z m749 -38 c46 -19 69 -49 65 -83 -3 -24 -7 -28 -33 -28 -28 0 -30 3
-33 42 -4 58 -32 74 -67 39 -35 -35 -35 -107 0 -141 29 -30 54 -32 88 -5 30
24 37 25 37 6 0 -8 -14 -26 -31 -40 -54 -45 -154 -31 -193 28 -20 31 -21 98
-2 135 28 53 105 74 169 47z m-1036 -71 c27 -19 34 -48 18 -79 -12 -23 -11
-25 31 -48 24 -12 44 -26 44 -30 0 -12 -44 -37 -78 -44 -28 -6 -33 -3 -42 20
-5 14 -11 26 -14 26 -2 0 -11 3 -20 6 -25 9 -20 -33 5 -46 28 -15 11 -34 -48
-54 -52 -18 -63 -15 -56 14 7 26 -34 140 -58 162 -24 21 -24 25 3 39 84 45
178 60 215 34z m1379 -56 c14 -16 16 -34 12 -116 -3 -54 -2 -108 3 -120 12
-32 -4 -37 -55 -15 -49 22 -63 39 -47 55 19 19 12 33 -24 50 -47 23 -55 22
-55 -8 0 -27 -18 -32 -51 -15 -22 12 -26 40 -5 40 20 0 153 117 159 140 6 23
37 17 63 -11z m-1724 -72 c-2 -9 15 -47 38 -84 22 -37 40 -73 40 -80 0 -31
-33 -74 -70 -93 -72 -37 -102 -26 -160 60 -22 33 -47 60 -55 60 -8 0 -15 4
-15 8 0 19 74 72 99 72 6 0 11 -10 11 -23 0 -25 64 -123 91 -140 22 -14 69 16
69 42 0 30 -75 137 -101 145 l-24 6 29 26 c30 27 53 27 48 1z m2017 -102 c102
-75 120 -155 41 -181 -33 -11 -35 -15 -36 -55 -1 -24 -2 -47 -2 -52 -3 -11
-54 17 -76 42 -17 18 -17 25 -7 45 14 26 12 56 -4 58 -5 1 -14 -12 -20 -28 -5
-16 -10 -30 -11 -32 -5 -7 -61 28 -83 52 l-24 25 25 10 c30 11 108 113 108
141 0 31 22 24 89 -25z m-2329 -113 c0 -23 110 -132 133 -132 27 0 20 -19 -22
-61 -42 -43 -61 -49 -61 -21 0 10 -11 29 -25 42 l-25 23 -25 -23 -25 -24 22
-23 c12 -13 29 -23 39 -23 34 0 31 -21 -9 -60 -42 -42 -62 -50 -62 -24 0 22
-97 121 -126 128 -32 8 -30 18 10 60 36 39 66 47 66 18 0 -10 10 -28 23 -40
l23 -22 24 25 23 25 -23 25 c-13 14 -32 25 -42 25 -28 0 -22 16 22 60 44 44
60 50 60 22z m1335 -2 c257 -22 479 -98 690 -237 137 -91 309 -264 400 -402
236 -360 303 -815 179 -1219 -162 -533 -609 -921 -1164 -1013 -97 -16 -343
-16 -440 0 -489 81 -898 392 -1097 836 -90 200 -125 364 -126 590 -1 166 10
250 54 402 69 245 185 441 368 624 249 248 552 390 889 418 53 5 104 9 112 9
8 1 69 -3 135 -8z m1257 -117 c40 -39 48 -63 22 -63 -21 0 -124 -99 -136 -130
l-9 -25 -45 48 c-45 47 -49 67 -14 67 25 0 119 86 126 116 3 13 9 24 12 24 3
0 23 -17 44 -37z m-2828 -215 c8 -13 8 -23 0 -35 -12 -18 -27 -20 -76 -7 -32
7 -44 -11 -34 -51 13 -52 117 -74 157 -34 18 18 20 28 14 66 -7 51 5 52 31 1
23 -44 10 -101 -32 -144 -77 -77 -214 -22 -214 86 0 90 116 179 154 118z
m3026 -17 c18 -35 11 -61 -45 -144 -30 -45 -55 -90 -55 -99 0 -31 -26 -20 -54
22 -31 47 -33 70 -6 70 25 0 25 14 -1 56 -24 40 -34 42 -50 12 l-12 -22 -24
28 c-30 35 -25 52 13 48 34 -4 174 26 189 39 15 15 34 10 45 -10z m-3302
-1037 c16 -11 22 -25 22 -54 0 -29 -6 -43 -22 -54 -50 -36 -108 -4 -108 58 0
38 28 66 65 66 11 0 31 -7 43 -16z m3550 0 c16 -11 22 -25 22 -54 0 -29 -6
-43 -22 -54 -50 -36 -108 -4 -108 58 0 38 28 66 65 66 11 0 31 -7 43 -16z
m-2958 -1231 c22 -25 43 -57 46 -70 9 -34 -13 -55 -48 -47 -28 5 -29 4 -19
-14 14 -27 14 -65 -1 -80 -18 -18 -69 -15 -103 6 -40 25 -125 112 -125 129 0
7 8 13 17 13 22 0 123 99 123 120 0 9 3 20 6 23 10 9 57 -27 104 -80z m2384
-28 c47 -19 96 -35 110 -35 37 0 33 -26 -11 -66 -39 -36 -63 -43 -63 -20 0 28
-22 28 -51 0 -34 -33 -37 -50 -9 -57 26 -7 25 -19 -4 -46 -25 -24 -52 -20 -42
5 6 17 -48 161 -70 185 -18 20 -18 28 3 51 23 25 41 23 137 -17z m-2172 -147
c39 -27 71 -57 83 -80 18 -35 19 -40 5 -65 -10 -18 -25 -29 -44 -31 -26 -3
-27 -5 -25 -55 4 -62 -8 -68 -61 -33 -41 27 -48 44 -29 63 13 13 8 53 -6 56
-5 1 -14 -13 -20 -30 -11 -41 -21 -41 -73 -3 -46 33 -51 45 -23 53 23 6 101
119 101 146 0 31 21 26 92 -21z m1924 8 c-3 -13 3 -68 14 -121 21 -100 17
-125 -16 -125 -8 0 -51 25 -97 55 -45 30 -89 55 -99 55 -46 0 -28 40 33 71 46
23 49 23 49 4 0 -17 26 -43 71 -69 l32 -19 -7 49 c-5 31 -15 56 -28 67 -20 17
-20 18 -3 37 10 11 27 20 38 20 15 0 18 -5 13 -24z m-276 -161 c0 -35 54 -150
75 -163 24 -13 11 -30 -39 -53 -55 -25 -70 -24 -63 3 8 29 -38 136 -70 164
l-25 21 34 20 c65 40 88 42 88 8z m-1340 -8 c24 -12 26 -19 36 -142 6 -72 10
-132 8 -134 -6 -7 -78 17 -99 33 -16 12 -18 17 -7 27 21 22 14 38 -24 54 -41
17 -54 13 -54 -16 0 -24 -42 -26 -61 -2 -12 14 -12 17 1 21 27 9 150 135 150
154 0 21 15 23 50 5z m1172 -43 c4 -3 0 -20 -7 -37 -7 -18 -16 -69 -20 -115
-7 -81 -21 -112 -49 -112 -7 0 -42 36 -77 81 -34 44 -71 85 -82 90 -25 14 -17
30 24 45 55 20 79 18 79 -8 0 -25 63 -111 74 -101 10 10 7 111 -4 118 -17 10
-11 25 13 35 27 11 42 12 49 4z m-814 -71 c31 -23 42 -70 18 -79 -22 -8 -46
13 -46 41 0 27 -22 48 -46 43 -32 -6 -26 -28 17 -65 70 -62 89 -85 89 -109 0
-33 -45 -64 -94 -64 -58 0 -144 42 -152 74 -8 32 1 46 32 46 25 0 28 -4 38
-53 9 -38 50 -57 74 -34 16 17 13 21 -51 80 -75 70 -82 94 -39 127 22 18 37
21 80 18 32 -3 64 -13 80 -25z m270 -20 c12 -10 35 -54 52 -98 18 -44 40 -89
51 -101 26 -28 16 -34 -53 -34 l-60 0 7 30 7 30 -52 0 -52 0 7 -30 c6 -29 5
-30 -28 -30 -44 0 -51 9 -29 34 25 28 77 153 74 179 -2 38 41 49 76 20z"/>
<path d="M1624 3514 c-84 -51 -120 -89 -162 -173 -34 -69 -37 -82 -37 -160 0
-75 4 -94 31 -151 49 -103 135 -180 245 -220 l54 -19 -88 -1 c-105 0 -147 -16
-178 -67 -19 -30 -21 -45 -17 -123 3 -75 8 -94 31 -129 38 -57 96 -85 177 -85
36 0 77 3 91 7 l25 6 -3 -87 c-4 -98 -15 -72 139 -362 71 -133 92 -200 102
-318 8 -89 23 -127 72 -181 47 -52 99 -83 189 -111 94 -30 299 -32 390 -5 182
54 275 150 275 287 0 114 38 224 135 393 95 166 108 200 107 298 -1 69 2 88
12 84 35 -14 126 -18 164 -7 53 14 110 63 133 115 25 55 25 168 1 214 -29 54
-72 71 -177 72 l-90 0 62 23 c169 63 284 229 270 392 -7 88 -53 183 -119 245
-91 86 -194 123 -218 80 -13 -26 -14 -23 21 -67 46 -58 69 -109 80 -175 20
-126 -36 -170 -223 -177 -88 -3 -119 -1 -175 17 -72 22 -85 29 -182 103 -92
70 -157 92 -266 92 -79 0 -98 -4 -155 -30 -36 -17 -92 -52 -124 -79 -90 -73
-159 -98 -287 -103 -121 -5 -199 12 -246 52 -23 20 -27 31 -27 77 0 77 20 139
65 198 41 54 50 95 23 105 -32 12 -62 5 -120 -30z m-69 -266 c2 -165 140 -248
391 -235 l102 5 -37 -62 c-36 -58 -40 -61 -87 -69 -160 -24 -315 49 -381 182
-23 45 -25 175 -4 214 8 15 15 27 15 27 1 0 1 -28 1 -62z m1920 -68 c0 -120
-56 -205 -172 -262 -60 -29 -73 -32 -163 -32 -112 0 -117 2 -158 79 l-29 53
92 -5 c146 -9 276 21 336 78 43 40 59 82 59 156 l1 68 17 -30 c11 -21 17 -53
17 -105z m-848 21 c75 -36 168 -126 234 -226 97 -148 202 -412 235 -596 21
-113 15 -136 -78 -300 -38 -68 -84 -159 -102 -201 l-32 -78 -29 30 c-36 37
-138 90 -175 90 -32 0 -50 -17 -50 -46 0 -26 13 -37 64 -55 88 -31 166 -133
166 -218 0 -37 -6 -48 -48 -90 -26 -26 -57 -50 -69 -53 -18 -5 -22 0 -27 36
-14 84 -27 117 -51 128 -37 16 -53 -4 -61 -74 -9 -80 -27 -98 -99 -98 -69 0
-91 19 -100 87 -10 71 -14 80 -36 86 -42 11 -56 -7 -79 -103 -18 -75 -16 -72
-47 -56 -105 58 -132 146 -74 238 33 53 78 89 145 118 53 24 64 40 48 76 -8
17 -20 24 -39 24 -40 0 -124 -42 -172 -85 l-41 -37 -11 29 c-16 43 -103 216
-160 323 l-52 95 6 80 c4 44 14 103 22 130 9 28 18 59 20 70 19 90 128 334
198 444 149 229 325 312 494 232z m-842 -511 l102 0 -27 -77 c-29 -82 -51
-107 -108 -123 -92 -25 -163 1 -181 67 -28 101 0 148 83 137 16 -2 75 -4 131
-4z m1638 -21 c21 -26 22 -67 1 -119 -26 -64 -86 -85 -176 -59 -60 16 -88 47
-113 127 l-23 71 117 4 c149 4 172 1 194 -24z"/>
<path d="M2054 2414 c-16 -65 24 -141 91 -174 38 -18 58 -22 105 -17 54 5 110
29 110 47 0 16 -54 72 -89 94 -42 26 -109 51 -169 65 -40 8 -42 8 -48 -15z"/>
<path d="M2895 2428 c-84 -18 -158 -52 -206 -96 -27 -24 -49 -50 -49 -58 0
-23 47 -46 109 -51 105 -10 181 46 197 144 9 58 -2 71 -51 61z"/>
</g>
</svg>
